<mxfile host="drawio-plugin" modified="2023-06-25T09:14:19.077Z" agent="5.0 (Windows NT 6.2; Win64; x64) AppleWebKit/537.36 (KHTML, like Gecko) Chrome/89.0.4389.114 Safari/537.36" etag="gBvKxsBBNEyaQXKaGjec" version="20.5.3" type="embed"><diagram id="_dmMADe524IZaA6elYtw" name="第 1 页"><mxGraphModel dx="730" dy="615" grid="1" gridSize="10" guides="1" tooltips="1" connect="1" arrows="1" fold="1" page="1" pageScale="1" pageWidth="827" pageHeight="1169" math="0" shadow="0"><root><mxCell id="0"/><mxCell id="1" parent="0"/><mxCell id="fIxzAKLp4fmucAJAw2ln-1" value="&lt;font style=&quot;font-size: 27px&quot;&gt;浏览器&lt;/font&gt;" style="rounded=1;whiteSpace=wrap;html=1;fillColor=#ffe6cc;strokeColor=#d79b00;" parent="1" vertex="1"><mxGeometry x="140" y="120" width="120" height="280" as="geometry"/></mxCell><mxCell id="fIxzAKLp4fmucAJAw2ln-2" value="&lt;font style=&quot;font-size: 27px&quot;&gt;服务器&lt;/font&gt;" style="rounded=1;whiteSpace=wrap;html=1;fillColor=#f8cecc;strokeColor=#b85450;" parent="1" vertex="1"><mxGeometry x="500" y="120" width="120" height="280" as="geometry"/></mxCell><mxCell id="fIxzAKLp4fmucAJAw2ln-3" value="&lt;font style=&quot;font-size: 20px&quot;&gt;输入网址&lt;/font&gt;" style="text;html=1;strokeColor=none;fillColor=none;align=center;verticalAlign=middle;whiteSpace=wrap;rounded=0;" parent="1" vertex="1"><mxGeometry x="160" y="140" width="90" height="20" as="geometry"/></mxCell><mxCell id="fIxzAKLp4fmucAJAw2ln-4" value="" style="endArrow=classic;html=1;exitX=1;exitY=0.143;exitDx=0;exitDy=0;exitPerimeter=0;entryX=-0.017;entryY=0.154;entryDx=0;entryDy=0;entryPerimeter=0;" parent="1" source="fIxzAKLp4fmucAJAw2ln-1" target="fIxzAKLp4fmucAJAw2ln-2" edge="1"><mxGeometry width="50" height="50" relative="1" as="geometry"><mxPoint x="390" y="380" as="sourcePoint"/><mxPoint x="440" y="330" as="targetPoint"/></mxGeometry></mxCell><mxCell id="fIxzAKLp4fmucAJAw2ln-5" value="&lt;span style=&quot;font-size: 20px&quot;&gt;请求服务器数据&lt;/span&gt;" style="text;html=1;strokeColor=none;fillColor=none;align=center;verticalAlign=middle;whiteSpace=wrap;rounded=0;" parent="1" vertex="1"><mxGeometry x="290" y="130" width="170" height="20" as="geometry"/></mxCell><mxCell id="fIxzAKLp4fmucAJAw2ln-6" value="" style="endArrow=classic;html=1;entryX=1.05;entryY=0.429;entryDx=0;entryDy=0;entryPerimeter=0;" parent="1" target="fIxzAKLp4fmucAJAw2ln-1" edge="1"><mxGeometry width="50" height="50" relative="1" as="geometry"><mxPoint x="490" y="240" as="sourcePoint"/><mxPoint x="440" y="330" as="targetPoint"/></mxGeometry></mxCell><mxCell id="fIxzAKLp4fmucAJAw2ln-7" value="&lt;span style=&quot;font-size: 20px&quot;&gt;返回数据&lt;/span&gt;" style="text;html=1;strokeColor=none;fillColor=none;align=center;verticalAlign=middle;whiteSpace=wrap;rounded=0;" parent="1" vertex="1"><mxGeometry x="290" y="210" width="170" height="20" as="geometry"/></mxCell><mxCell id="fIxzAKLp4fmucAJAw2ln-8" value="" style="endArrow=classic;html=1;exitX=1;exitY=0.143;exitDx=0;exitDy=0;exitPerimeter=0;entryX=-0.017;entryY=0.154;entryDx=0;entryDy=0;entryPerimeter=0;" parent="1" edge="1"><mxGeometry width="50" height="50" relative="1" as="geometry"><mxPoint x="262.04" y="350.03999999999996" as="sourcePoint"/><mxPoint x="500.00000000000006" y="353.12" as="targetPoint"/></mxGeometry></mxCell><mxCell id="fIxzAKLp4fmucAJAw2ln-9" value="&lt;span style=&quot;font-size: 20px&quot;&gt;继续请求其他外链地址&lt;/span&gt;" style="text;html=1;strokeColor=none;fillColor=none;align=center;verticalAlign=middle;whiteSpace=wrap;rounded=0;" parent="1" vertex="1"><mxGeometry x="280" y="330" width="207.96" height="20" as="geometry"/></mxCell><mxCell id="fIxzAKLp4fmucAJAw2ln-10" value="&lt;span style=&quot;font-size: 20px&quot;&gt;文件\图片\css样式\字体...&lt;/span&gt;" style="text;html=1;strokeColor=none;fillColor=none;align=center;verticalAlign=middle;whiteSpace=wrap;rounded=0;" parent="1" vertex="1"><mxGeometry x="264.49" y="360" width="238.98" height="20" as="geometry"/></mxCell></root></mxGraphModel></diagram></mxfile>